<svg width="36" height="128" viewBox="0 0 36 128" fill="none" xmlns="http://www.w3.org/2000/svg">
<path d="M1.66688 124.972C0.577741 124.788 -0.156039 123.756 0.0279372 122.667L3.02601 104.918C3.20998 103.829 4.24205 103.095 5.33119 103.279C6.42033 103.463 7.15411 104.495 6.97013 105.585L4.30518 121.361L20.0817 124.026C21.1708 124.21 21.9046 125.242 21.7206 126.331C21.5367 127.42 20.5046 128.154 19.4154 127.97L1.66688 124.972ZM0.841092 121.37L1.77532 120.706L4.09314 123.966L3.15891 124.63L0.841092 121.37ZM1.77532 120.706C42.2072 91.9594 41.7398 31.763 0.866538 3.6478L3.13346 0.352196C46.2958 30.0419 46.7893 93.6095 4.09314 123.966L1.77532 120.706Z" fill="#FEFEFE"/>
</svg>
