<svg width="134" height="67" viewBox="0 0 134 67" fill="none" xmlns="http://www.w3.org/2000/svg">
<path d="M50.1542 33.4863C45.8062 33.4648 41.6371 31.7527 38.5289 28.7122C35.4207 25.6716 33.6172 21.5412 33.5 17.1948V16.7637C33.5 13.4541 32.5195 10.2186 30.6823 7.46575C28.8451 4.71288 26.2335 2.56598 23.1772 1.29603C20.1209 0.0260831 16.7569 -0.309986 13.5098 0.33024C10.2627 0.970465 7.27805 2.55829 4.93255 4.89329C2.58705 7.2283 0.98586 10.2058 0.331083 13.45C-0.323694 16.6942 -0.00270753 20.0597 1.25353 23.1216C2.50976 26.1836 4.64494 28.8048 7.38954 30.6543C10.1341 32.5038 13.3652 33.4988 16.6747 33.5137H16.75C18.9501 33.5107 21.1291 33.9426 23.1617 34.7845C25.1943 35.6264 27.0405 36.8618 28.5941 38.4196C31.7239 41.5685 33.4866 45.824 33.5 50.2637C33.5 50.38 33.5 50.6058 33.5 50.7221C33.6246 55.0798 35.4432 59.2172 38.5696 62.2555C41.696 65.2937 45.8837 66.9934 50.2432 66.9934C54.6026 66.9934 58.7904 65.2937 61.9167 62.2555C65.0431 59.2172 66.8617 55.0798 66.9863 50.7221V50.2705C67.0056 45.832 68.7674 41.5786 71.8923 38.4265C73.445 36.8695 75.2901 35.6346 77.3215 34.7927C79.3529 33.9507 81.5305 33.5184 83.7295 33.5205H84.3658C88.6977 33.6746 92.8009 35.5027 95.8125 38.6202C98.8241 41.7377 100.509 45.9017 100.514 50.2363V50.6811C100.638 55.0388 102.457 59.1762 105.583 62.2144C108.71 65.2527 112.897 66.9523 117.257 66.9523C121.616 66.9523 125.804 65.2527 128.93 62.2144C132.057 59.1762 133.875 55.0388 134 50.6811V50.2568C134 45.9836 132.367 41.8719 129.436 38.7632C126.504 35.6544 122.494 33.7838 118.228 33.5342H117.25C112.883 33.532 108.689 31.8241 105.562 28.7744C102.436 25.7247 100.624 21.5745 100.514 17.2084V16.7637C100.514 14.5622 100.08 12.3824 99.2376 10.3485C98.3952 8.31463 97.1604 6.46662 95.6037 4.90997C94.0471 3.35331 92.199 2.11851 90.1652 1.27606C88.1313 0.433606 85.9514 0 83.75 0C81.5486 0 79.3687 0.433606 77.3348 1.27606C75.301 2.11851 73.4529 3.35331 71.8963 4.90997C70.3396 6.46662 69.1048 8.31463 68.2624 10.3485C67.4199 12.3824 66.9863 14.5622 66.9863 16.7637V17.2221C66.8688 21.5364 65.0904 25.6389 62.0221 28.6741C58.9537 31.7093 54.8322 33.443 50.5169 33.5137L50.1542 33.4863Z" fill="#F26122"/>
<path d="M120.206 41.2934C120.961 41.4921 121.684 41.7961 122.354 42.1966C122.873 42.5158 123.372 42.8678 123.846 43.2503C124.186 43.5162 124.498 43.8165 124.776 44.1466L125.064 44.5093L123.21 46.3772L122.977 46.0899C122.766 45.8449 122.538 45.6162 122.293 45.4056C121.943 45.0835 121.56 44.7991 121.15 44.5572C120.646 44.2707 120.111 44.0412 119.556 43.8729C118.891 43.6665 118.199 43.5627 117.503 43.565C115.668 43.565 113.909 44.2939 112.612 45.5912C111.314 46.8885 110.586 48.648 110.586 50.4826C110.586 52.3173 111.314 54.0768 112.612 55.3741C113.909 56.6714 115.668 57.4002 117.503 57.4002C118.21 57.4036 118.914 57.2998 119.59 57.0923C120.172 56.929 120.727 56.6824 121.239 56.3602C121.641 56.0999 122.027 55.8166 122.395 55.5117C122.666 55.2942 122.916 55.0513 123.141 54.7865L123.353 54.4649L125.221 56.3328C125.121 56.4749 125.014 56.612 124.9 56.7433C124.605 57.0608 124.29 57.358 123.955 57.6329C123.469 58.0529 122.947 58.4306 122.395 58.7618C121.717 59.1475 120.993 59.4464 120.24 59.6513C119.352 59.9169 118.43 60.0506 117.503 60.0482C116.207 60.0815 114.918 59.8527 113.713 59.3753C112.508 58.8979 111.411 58.1819 110.49 57.2702C109.594 56.3799 108.883 55.3213 108.398 54.1553C107.913 52.9892 107.663 51.7387 107.663 50.4758C107.663 49.2129 107.913 47.9624 108.398 46.7963C108.883 45.6303 109.594 44.5716 110.49 43.6814C111.412 42.771 112.509 42.0558 113.714 41.5785C114.919 41.1012 116.207 40.8716 117.503 40.9034C118.428 40.8976 119.35 41.022 120.24 41.2729" fill="#060000"/>
<path d="M90.5714 10.2224C91.4671 11.1127 92.178 12.1713 92.6631 13.3374C93.1482 14.5034 93.398 15.7539 93.398 17.0168C93.398 18.2798 93.1482 19.5303 92.6631 20.6963C92.178 21.8624 91.4671 22.921 90.5714 23.8113C89.6504 24.7218 88.5551 25.4371 87.3512 25.9144C86.1473 26.3918 84.8595 26.6213 83.5648 26.5892C82.639 26.5917 81.7175 26.4626 80.8279 26.2061C80.0601 26.0003 79.3253 25.687 78.6452 25.2755C78.1119 24.9456 77.5999 24.5822 77.1125 24.1876C76.7565 23.9098 76.4349 23.5905 76.1546 23.2365L75.8398 22.8739L77.6941 21.0059L77.9404 21.3138C78.1546 21.5554 78.3831 21.7839 78.6247 21.998C78.9855 22.3331 79.3773 22.6332 79.7947 22.8944C80.3094 23.1893 80.8587 23.4191 81.43 23.5786C82.1119 23.7929 82.8227 23.9013 83.5375 23.9002C85.1782 23.9581 86.7807 23.3963 88.026 22.3265C89.2375 21.2419 90.0435 19.777 90.3113 18.1732H81.1426V15.5252H90.3113C89.9279 13.9978 89.0819 12.6261 87.8892 11.5977C86.6764 10.5691 85.1271 10.0234 83.5375 10.065C82.8428 10.0661 82.1517 10.1651 81.4848 10.3593C80.9165 10.5151 80.3713 10.7452 79.8631 11.0435C79.4689 11.2833 79.0937 11.5533 78.741 11.8509C78.4904 12.0553 78.2611 12.2845 78.0567 12.5351L77.8446 12.8293L75.9767 10.9614L76.2846 10.5782C76.562 10.267 76.864 9.97871 77.1878 9.71608C77.6639 9.30789 78.1744 8.9416 78.7136 8.62131C80.203 7.81197 81.8697 7.38413 83.5648 7.37601C84.8605 7.34423 86.1493 7.57383 87.3543 8.05112C88.5592 8.52841 89.6557 9.2436 90.5782 10.154" fill="#060000"/>
<path d="M21.5736 26.3292V12.8978L11.2006 26.3292H8.67578V7.70444H11.6043V21.1496L21.9773 7.70444H24.4952V26.3292H21.5736Z" fill="#060000"/>
<path d="M57.257 41.1839H59.7886V59.8087H56.8669V46.2472L50.0725 54.7591L43.2918 46.2472V59.8087H40.3701V41.1839H42.8949L50.0725 50.2363L57.257 41.1839Z" fill="#060000"/>
</svg>
